HIERARCHY
ROOT reference
{
  OFFSET 0 0 0
  CHANNELS 6 Xposition Yposition Zposition Zrotation Xrotation Yrotation
  JOINT Hips
  {
    OFFSET 11.5135 85.6102 189.42
    CHANNELS 6 Xposition Yposition Zposition Zrotation Xrotation Yrotation
    JOINT Spine
    {
      OFFSET 0 7.3847 0
      CHANNELS 6 Xposition Yposition Zposition Zrotation Xrotation Yrotation
      JOINT Spine1
      {
        OFFSET 0 22.52 0
        CHANNELS 6 Xposition Yposition Zposition Zrotation Xrotation Yrotation
        JOINT Neck
        {
          OFFSET 0 22.4276 2.03887
          CHANNELS 6 Xposition Yposition Zposition Zrotation Xrotation Yrotation
          JOINT Head
          {
            OFFSET 0 12.608 -1.80115
            CHANNELS 6 Xposition Yposition Zposition Zrotation Xrotation Yrotation
            End Site
            {
              OFFSET 0 22.5143 0
            }
          }
        }
        JOINT LeftShoulder
        {
          OFFSET 3.70204 19.5563 -0.329131
          CHANNELS 6 Xposition Yposition Zposition Zrotation Xrotation Yrotation
          JOINT LeftArm
          {
            OFFSET 13.7086 0 0
            CHANNELS 6 Xposition Yposition Zposition Zrotation Xrotation Yrotation
            JOINT LeftForeArm
            {
              OFFSET 25.9307 0 0
              CHANNELS 6 Xposition Yposition Zposition Zrotation Xrotation Yrotation
              JOINT LeftHand
              {
                OFFSET 23.5097 0 0
                CHANNELS 6 Xposition Yposition Zposition Zrotation Xrotation Yrotation
                End Site
                {
                  OFFSET 13.5086 0 0
                }
              }
            }
          }
        }
        JOINT RightShoulder
        {
          OFFSET -3.48695 19.5563 -0.329131
          CHANNELS 6 Xposition Yposition Zposition Zrotation Xrotation Yrotation
          JOINT RightArm
          {
            OFFSET -13.7086 0 0
            CHANNELS 6 Xposition Yposition Zposition Zrotation Xrotation Yrotation
            JOINT RightForeArm
            {
              OFFSET -25.9307 0 0
              CHANNELS 6 Xposition Yposition Zposition Zrotation Xrotation Yrotation
              JOINT RightHand
              {
                OFFSET -23.5097 0 0
                CHANNELS 6 Xposition Yposition Zposition Zrotation Xrotation Yrotation
                End Site
                {
                  OFFSET -13.5086 0 0
                }
              }
            }
          }
        }
      }
    }
    JOINT LeftUpLeg
    {
      OFFSET 9.00574 0 0
      CHANNELS 6 Xposition Yposition Zposition Zrotation Xrotation Yrotation
      JOINT LeftLeg
      {
        OFFSET 0 -37.3387 0
        CHANNELS 6 Xposition Yposition Zposition Zrotation Xrotation Yrotation
        JOINT LeftFoot
        {
          OFFSET 0 -36.155 0
          CHANNELS 6 Xposition Yposition Zposition Zrotation Xrotation Yrotation
          JOINT LeftToeBase
          {
            OFFSET 0 -5.85373 13.5086
            CHANNELS 6 Xposition Yposition Zposition Zrotation Xrotation Yrotation
            End Site
            {
              OFFSET 0 0 3.60229
            }
          }
        }
      }
    }
    JOINT RightUpLeg
    {
      OFFSET -9.00574 0 0
      CHANNELS 6 Xposition Yposition Zposition Zrotation Xrotation Yrotation
      JOINT RightLeg
      {
        OFFSET 0 -37.3387 0
        CHANNELS 6 Xposition Yposition Zposition Zrotation Xrotation Yrotation
        JOINT RightFoot
        {
          OFFSET 0 -36.155 0
          CHANNELS 6 Xposition Yposition Zposition Zrotation Xrotation Yrotation
          JOINT RightToeBase
          {
            OFFSET 0 -5.85373 13.5086
            CHANNELS 6 Xposition Yposition Zposition Zrotation Xrotation Yrotation
            End Site
            {
              OFFSET 0 0 3.60229
            }
          }
        }
      }
    }
  }
}
MOTION
Frames:	6
Frame Time:	0.004
0 0 0 0 0 -0 -15.2405 118.296 -46.0238 -0.557277 5.68224 6.85272 -3.55271e-015 7.3847 0 -1.66088 -6.26369 1.48089 5.32907e-015 22.52 -7.10543e-015 -0.994318 1.15085 1.58176 0 22.4276 2.03887 2.66215 18.157 -2.12529 -3.55271e-015 12.608 -1.80115 -0.54408 1.96048 -2.23286 3.70204 19.5563 -0.329131 0.335889 8.63825 -6.97914 13.7086 0 0 -69.1968 31.5807 -8.33972 25.9307 -3.55271e-015 0 -0.434414 0.150448 1.06623 23.5097 0 0 -6.10908 0.601791 -8.36745 -3.48695 19.5563 -0.329131 3.79787 10.2219 -1.28534 -13.7086 0 0 48.5402 39.0611 28.73 -25.9307 0 0 6.64395 4.55063 24.3851 -23.5097 3.55271e-015 1.77636e-015 -17.1415 1.98615 7.49719 9.00574 0 0 -4.37015 -14.2861 7.28972 0 -37.3387 7.10543e-015 1.27545 24.8273 2.24562 -1.77636e-015 -36.155 0 4.92543 -14.5341 -4.48546 8.88178e-016 -5.85373 13.5086 -9.93923e-017 0 -0 -9.00574 0 -7.10543e-015 -2.72306 -2.7101 -4.25637 0 -37.3387 7.10543e-015 7.5191 26.5132 -4.82814 0 -36.155 0 2.15724 -16.9885 -6.16073 3.55271e-015 -5.85373 13.5086 -3.97569e-016 3.18055e-015 -0 
0 0 0 0 0 -0 -15.1477 118.297 -45.7241 -0.612106 5.57533 6.88153 0 7.3847 0 -1.5775 -6.31941 1.46441 0 22.52 7.10543e-015 -1.07359 1.15849 1.56233 0 22.4276 2.03887 2.74648 18.2198 -2.14565 0 12.608 -1.80115 -0.510115 2.11864 -2.24596 3.70204 19.5563 -0.329131 0.417927 8.58993 -6.9316 13.7086 -2.84217e-014 0 -69.3067 31.5376 -8.32733 25.9307 7.10543e-015 0 -0.525309 0.256671 1.09303 23.5097 3.55271e-015 0 -5.95901 0.688326 -8.1785 -3.48695 19.5563 -0.329131 3.87462 10.2313 -1.35783 -13.7086 0 0 48.6238 39.0829 28.5839 -25.9307 0 1.42109e-014 6.56744 4.25879 24.3484 -23.5097 -7.10543e-015 5.32907e-015 -16.9622 1.72109 7.51954 9.00574 0 -7.10543e-015 -4.32532 -13.8453 7.4862 1.77636e-015 -37.3387 -3.55271e-015 1.30685 24.6247 1.98793 0 -36.155 0 4.93682 -14.7117 -4.45717 -8.88178e-016 -5.85373 13.5086 -1.98785e-016 -1.19271e-015 -1.59028e-015 -9.00574 -1.42109e-014 0 -2.81928 -3.00968 -4.32908 -3.55271e-015 -37.3387 0 7.70473 27.64 -4.9386 0 -36.155 0 2.54286 -16.8984 -6.07022 0 -5.85373 13.5086 -1.32417e-031 1.59028e-015 4.77083e-015 
0 0 0 0 0 -0 -15.0451 118.31 -45.4478 -0.634511 5.52002 6.91367 -3.55271e-015 7.3847 7.10543e-015 -1.54988 -6.37704 1.43441 0 22.52 0 -1.08883 1.10854 1.53125 -3.55271e-015 22.4276 2.03887 2.8431 18.2627 -2.17323 0 12.608 -1.80115 -0.594976 2.38233 -2.28092 3.70204 19.5563 -0.329131 0.423412 8.6999 -6.89967 13.7086 -2.84217e-014 0 -69.3383 31.508 -8.39476 25.9307 3.55271e-015 0 -0.506282 0.4056 1.0421 23.5097 0 0 -6.11618 0.845808 -8.13649 -3.48695 19.5563 -0.329131 3.86732 10.3158 -1.40375 -13.7086 0 0 48.6931 39.1056 28.5311 -25.9307 -1.42109e-014 0 6.50257 4.30984 24.1226 -23.5097 3.55271e-015 7.10543e-015 -17.0615 1.81122 7.39875 9.00574 0 7.10543e-015 -4.34084 -13.4708 7.66237 -1.77636e-015 -37.3387 3.55271e-015 1.35389 24.409 1.78857 0 -36.155 0 4.95472 -14.8016 -4.48921 2.66454e-015 -5.85373 13.5086 3.97569e-016 3.97569e-016 -0 -9.00574 1.42109e-014 7.10543e-015 -2.97801 -3.41638 -4.45739 -3.55271e-015 -37.3387 0 7.8448 28.8475 -5.04785 3.55271e-015 -36.155 -1.42109e-014 2.76743 -16.6723 -5.92006 -3.55271e-015 -5.85373 13.5086 4.41391e-032 1.59028e-015 -1.59028e-015 
0 0 0 0 0 -0 -14.9496 118.31 -45.1554 -0.661016 5.44188 6.95914 1.77636e-015 7.3847 0 -1.52458 -6.44818 1.38563 1.77636e-015 22.52 0 -1.10728 1.10547 1.48222 -3.55271e-015 22.4276 2.03887 2.89837 18.3952 -2.18248 1.77636e-015 12.608 -1.80115 -0.615701 2.45146 -2.28799 3.70204 19.5563 -0.329131 0.450741 8.65784 -6.79989 13.7086 0 0 -69.463 31.571 -8.35679 25.9307 0 0 -0.502571 0.512183 1.03121 23.5097 -3.55271e-015 0 -6.12398 0.947427 -8.03745 -3.48695 19.5563 -0.329131 3.88436 10.3822 -1.43401 -13.7086 -5.68434e-014 0 48.7524 39.0424 28.448 -25.9307 7.10543e-015 0 6.52538 4.03843 24.1172 -23.5097 -3.55271e-015 -3.55271e-015 -16.9927 1.52705 7.47973 9.00574 -1.42109e-014 0 -4.33299 -13.0763 7.80577 0 -37.3387 0 1.36789 24.2256 1.53463 -1.77636e-015 -36.155 0 5.00198 -14.9422 -4.43612 -8.88178e-016 -5.85373 13.5086 -1.98785e-016 3.97569e-016 3.18055e-015 -9.00574 0 0 -3.12358 -3.79195 -4.54462 -3.55271e-015 -37.3387 0 8.02157 30.0524 -5.14209 -3.55271e-015 -36.155 1.42109e-014 2.95852 -16.4566 -5.84572 -3.55271e-015 -5.85373 13.5086 -3.97569e-016 0 1.59028e-015 
0 0 0 0 0 -0 -14.8531 118.31 -44.8623 -0.689148 5.34625 6.99446 0 7.3847 0 -1.49197 -6.48504 1.35638 0 22.52 0 -1.12813 1.09088 1.45163 -1.77636e-015 22.4276 2.03887 2.93004 18.4588 -2.17386 0 12.608 -1.80115 -0.580975 2.60034 -2.27166 3.70204 19.5563 -0.329131 0.481349 8.65818 -6.75297 13.7086 -2.84217e-014 0 -69.5627 31.6502 -8.34764 25.9307 -7.10543e-015 0 -0.45705 0.676069 1.05252 23.5097 0 0 -6.27974 1.13589 -8.29121 -3.48695 19.5563 -0.329131 3.91822 10.4439 -1.52078 -13.7086 -2.84217e-014 0 48.7615 39.0907 28.4225 -25.9307 0 0 6.46858 3.92138 24.0072 -23.5097 0 -1.77636e-015 -17.0365 1.42995 7.44984 9.00574 1.42109e-014 0 -4.31046 -12.6353 7.89444 -1.77636e-015 -37.3387 0 1.33124 23.9992 1.39434 -1.77636e-015 -36.155 0 5.00232 -15.0972 -4.42032 8.88178e-016 -5.85373 13.5086 0 0 -1.59028e-015 -9.00574 -1.42109e-014 -7.10543e-015 -3.28667 -4.15153 -4.66266 0 -37.3387 0 8.18816 31.2471 -5.33885 -3.55271e-015 -36.155 0 3.7979 -16.148 -5.54433 0 -5.85373 13.5086 7.95139e-016 0 1.59028e-015 
0 0 0 0 0 -0 -14.7561 118.309 -44.5625 -0.727594 5.24844 7.05646 0 7.3847 0 -1.44215 -6.52386 1.29099 -3.55271e-015 22.52 0 -1.15913 1.05918 1.38391 0 22.4276 2.03887 2.95228 18.5379 -2.1631 0 12.608 -1.80115 -0.574691 2.78613 -2.25608 3.70204 19.5563 -0.329131 0.428472 8.73149 -6.72626 13.7086 -2.84217e-014 0 -69.5896 31.67 -8.29005 25.9307 0 0 -0.396133 0.729177 0.938698 23.5097 0 0 -6.29486 1.1836 -8.19147 -3.48695 19.5563 -0.329131 3.93116 10.5632 -1.55181 -13.7086 2.84217e-014 0 48.7677 39.1203 28.4321 -25.9307 2.13163e-014 0 6.39894 3.80032 23.8713 -23.5097 -7.10543e-015 3.55271e-015 -17.0654 1.33215 7.43246 9.00574 0 7.10543e-015 -4.28029 -12.1901 7.93473 0 -37.3387 0 1.28004 23.7669 1.27657 3.55271e-015 -36.155 0 5.04187 -15.2573 -4.39599 0 -5.85373 13.5086 0 3.97569e-016 -0 -9.00574 0 0 -3.44538 -4.51897 -4.83998 -3.55271e-015 -37.3387 -7.10543e-015 8.33024 32.4593 -5.32552 -3.55271e-015 -36.155 0 4.35154 -15.8972 -5.4097 7.10543e-015 -5.85373 13.5086 -7.95139e-016 0 -1.59028e-015 
